<svg xmlns="http://www.w3.org/2000/svg" width="1000" height="750" viewBox="0 0 1000 750"
    preserveAspectRatio="none">
    <rect width="100%" height="100%" fill="#DDDDDD" />
    <path fill="#999999"
        d="M240.9 406.74h15.34v10.92h-47.2v-10.92h17.29v-49.73q0-2.95.18-6.08l-12.28 10.27q-1.06.82-2.09 1.03t-1.95.03q-.91-.18-1.62-.62t-1.06-.97l-4.6-6.32 26.01-22.12h11.98zM329.11 375q0 11.15-2.39 19.38t-6.61 13.6-9.97 8q-5.75 2.62-12.42 2.62t-12.36-2.62q-5.7-2.63-9.88-8-4.19-5.37-6.55-13.6T266.57 375q0-11.21 2.36-19.41t6.55-13.57q4.18-5.37 9.88-7.99 5.69-2.63 12.36-2.63t12.42 2.63q5.75 2.62 9.97 7.99t6.61 13.57 2.39 19.41m-15.05 0q0-9.26-1.36-15.34-1.35-6.07-3.62-9.67-2.28-3.6-5.23-5.05-2.95-1.44-6.13-1.44-3.13 0-6.05 1.44-2.92 1.45-5.16 5.05t-3.57 9.67q-1.33 6.08-1.33 15.34 0 9.27 1.33 15.34 1.33 6.08 3.57 9.68t5.16 5.04q2.92 1.45 6.05 1.45 3.18 0 6.13-1.45 2.95-1.44 5.23-5.04 2.27-3.6 3.62-9.68 1.36-6.07 1.36-15.34m83.49 0q0 11.15-2.39 19.38t-6.61 13.6-9.97 8q-5.75 2.62-12.42 2.62t-12.36-2.62q-5.7-2.63-9.88-8-4.19-5.37-6.55-13.6T335.01 375q0-11.21 2.36-19.41t6.55-13.57q4.18-5.37 9.88-7.99 5.69-2.63 12.36-2.63t12.42 2.63q5.75 2.62 9.97 7.99t6.61 13.57 2.39 19.41m-15.05 0q0-9.26-1.36-15.34-1.35-6.07-3.62-9.67-2.28-3.6-5.23-5.05-2.95-1.44-6.13-1.44-3.13 0-6.05 1.44-2.92 1.45-5.16 5.05t-3.57 9.67q-1.33 6.08-1.33 15.34 0 9.27 1.33 15.34 1.33 6.08 3.57 9.68t5.16 5.04q2.92 1.45 6.05 1.45 3.18 0 6.13-1.45 2.95-1.44 5.23-5.04 2.27-3.6 3.62-9.68 1.36-6.07 1.36-15.34m83.49 0q0 11.15-2.39 19.38t-6.61 13.6-9.97 8q-5.75 2.62-12.42 2.62t-12.36-2.62q-5.7-2.63-9.88-8-4.19-5.37-6.55-13.6T403.45 375q0-11.21 2.36-19.41t6.55-13.57q4.18-5.37 9.88-7.99 5.69-2.63 12.36-2.63t12.42 2.63q5.75 2.62 9.97 7.99t6.61 13.57 2.39 19.41m-15.05 0q0-9.26-1.36-15.34-1.35-6.07-3.62-9.67-2.28-3.6-5.23-5.05-2.95-1.44-6.13-1.44-3.13 0-6.05 1.44-2.92 1.45-5.16 5.05t-3.57 9.67q-1.33 6.08-1.33 15.34 0 9.27 1.33 15.34 1.33 6.08 3.57 9.68t5.16 5.04q2.92 1.45 6.05 1.45 3.18 0 6.13-1.45 2.95-1.44 5.23-5.04 2.27-3.6 3.62-9.68 1.36-6.07 1.36-15.34m108.74 23.13-7.73 7.61-20-20-20.18 20.12-7.73-7.61 20.18-20.24-19.23-19.23 7.67-7.67 19.23 19.23 19.12-19.11 7.78 7.67-19.17 19.17zm40.53-65.78h58.94v6.31q0 2.83-.59 4.57t-1.18 2.92l-32.33 66.55q-1 2.07-2.83 3.51-1.83 1.45-4.9 1.45h-10.56l32.98-65.2q1.12-2 2.21-3.68 1.1-1.68 2.45-3.22h-40.83q-1.35 0-2.36-1-1-1-1-2.36zm89.92 13.21-3.01 17.76q2.83-.59 5.43-.85 2.59-.27 5.01-.27 6.73 0 11.86 2.01 5.13 2 8.61 5.54 3.49 3.54 5.26 8.29t1.77 10.24q0 6.78-2.39 12.39-2.39 5.6-6.64 9.59-4.25 3.98-10.06 6.16t-12.66 2.18q-4.01 0-7.61-.82-3.6-.83-6.75-2.21-3.16-1.39-5.84-3.19-2.69-1.8-4.81-3.81l4.48-6.19q1.42-2.01 3.72-2.01 1.47 0 3.01.95 1.53.94 3.51 2.06 1.97 1.12 4.66 2.07 2.68.94 6.46.94 4.01 0 7.08-1.3t5.1-3.63q2.04-2.33 3.07-5.54 1.03-3.22 1.03-6.99 0-6.97-4.04-10.89t-11.95-3.92q-6.07 0-12.44 2.24l-9.09-2.6 7.08-41.41h42.13v6.19q0 3.13-1.95 5.07-1.95 1.95-6.61 1.95zM797.09 375q0 11.15-2.39 19.38-2.38 8.23-6.6 13.6t-9.97 8q-5.76 2.62-12.42 2.62-6.67 0-12.36-2.62-5.7-2.63-9.89-8t-6.55-13.6-2.36-19.38q0-11.21 2.36-19.41t6.55-13.57 9.89-7.99q5.69-2.63 12.36-2.63 6.66 0 12.42 2.63 5.75 2.62 9.97 7.99t6.6 13.57q2.39 8.2 2.39 19.41m-15.04 0q0-9.26-1.36-15.34-1.35-6.07-3.63-9.67-2.27-3.6-5.22-5.05-2.95-1.44-6.13-1.44-3.13 0-6.05 1.44-2.92 1.45-5.16 5.05-2.25 3.6-3.57 9.67-1.33 6.08-1.33 15.34 0 9.27 1.33 15.34 1.32 6.08 3.57 9.68 2.24 3.6 5.16 5.04 2.92 1.45 6.05 1.45 3.18 0 6.13-1.45 2.95-1.44 5.22-5.04 2.28-3.6 3.63-9.68 1.36-6.07 1.36-15.34" />
</svg>